<svg width="256" height="256" viewBox="0 0 256 256" fill="none" xmlns="http://www.w3.org/2000/svg">
<rect x="87.5" y="86.5" width="123" height="123" fill="#BFFF7F"/>
<path d="M154.048 152.416C154.048 153.44 153.8 154.312 153.304 155.032C152.808 155.736 152.096 156.28 151.168 156.664C150.256 157.048 149.176 157.24 147.928 157.24C147.288 157.24 146.672 157.208 146.08 157.144C145.504 157.08 144.976 156.992 144.496 156.88C144.016 156.752 143.592 156.6 143.224 156.424V154.36C143.8 154.616 144.512 154.848 145.36 155.056C146.224 155.264 147.112 155.368 148.024 155.368C148.872 155.368 149.584 155.256 150.16 155.032C150.736 154.808 151.168 154.488 151.456 154.072C151.744 153.656 151.888 153.168 151.888 152.608C151.888 152.048 151.768 151.576 151.528 151.192C151.288 150.808 150.872 150.456 150.28 150.136C149.704 149.8 148.896 149.448 147.856 149.08C147.12 148.808 146.472 148.52 145.912 148.216C145.368 147.896 144.912 147.536 144.544 147.136C144.176 146.736 143.896 146.28 143.704 145.768C143.528 145.256 143.44 144.664 143.44 143.992C143.44 143.08 143.672 142.304 144.136 141.664C144.6 141.008 145.24 140.504 146.056 140.152C146.888 139.8 147.84 139.624 148.912 139.624C149.856 139.624 150.72 139.712 151.504 139.888C152.288 140.064 153 140.296 153.64 140.584L152.968 142.432C152.376 142.176 151.728 141.96 151.024 141.784C150.336 141.608 149.616 141.52 148.864 141.52C148.144 141.52 147.544 141.624 147.064 141.832C146.584 142.04 146.224 142.336 145.984 142.72C145.744 143.088 145.624 143.52 145.624 144.016C145.624 144.592 145.744 145.072 145.984 145.456C146.224 145.84 146.616 146.184 147.16 146.488C147.704 146.792 148.44 147.12 149.368 147.472C150.376 147.84 151.224 148.24 151.912 148.672C152.616 149.088 153.144 149.592 153.496 150.184C153.864 150.776 154.048 151.52 154.048 152.416Z" fill="black"/>
<rect x="87.5" y="86.5" width="123" height="123" stroke="black"/>
<rect x="77.5" y="76.5" width="123" height="123" fill="#FFFF7F"/>
<path d="M144.048 142.416C144.048 143.44 143.8 144.312 143.304 145.032C142.808 145.736 142.096 146.28 141.168 146.664C140.256 147.048 139.176 147.24 137.928 147.24C137.288 147.24 136.672 147.208 136.08 147.144C135.504 147.08 134.976 146.992 134.496 146.88C134.016 146.752 133.592 146.6 133.224 146.424V144.36C133.8 144.616 134.512 144.848 135.36 145.056C136.224 145.264 137.112 145.368 138.024 145.368C138.872 145.368 139.584 145.256 140.16 145.032C140.736 144.808 141.168 144.488 141.456 144.072C141.744 143.656 141.888 143.168 141.888 142.608C141.888 142.048 141.768 141.576 141.528 141.192C141.288 140.808 140.872 140.456 140.28 140.136C139.704 139.8 138.896 139.448 137.856 139.08C137.12 138.808 136.472 138.52 135.912 138.216C135.368 137.896 134.912 137.536 134.544 137.136C134.176 136.736 133.896 136.28 133.704 135.768C133.528 135.256 133.44 134.664 133.44 133.992C133.44 133.08 133.672 132.304 134.136 131.664C134.6 131.008 135.24 130.504 136.056 130.152C136.888 129.8 137.84 129.624 138.912 129.624C139.856 129.624 140.72 129.712 141.504 129.888C142.288 130.064 143 130.296 143.64 130.584L142.968 132.432C142.376 132.176 141.728 131.96 141.024 131.784C140.336 131.608 139.616 131.52 138.864 131.52C138.144 131.52 137.544 131.624 137.064 131.832C136.584 132.04 136.224 132.336 135.984 132.72C135.744 133.088 135.624 133.52 135.624 134.016C135.624 134.592 135.744 135.072 135.984 135.456C136.224 135.84 136.616 136.184 137.16 136.488C137.704 136.792 138.44 137.12 139.368 137.472C140.376 137.84 141.224 138.24 141.912 138.672C142.616 139.088 143.144 139.592 143.496 140.184C143.864 140.776 144.048 141.52 144.048 142.416Z" fill="black"/>
<rect x="77.5" y="76.5" width="123" height="123" stroke="black"/>
<rect x="67.5" y="66.5" width="123" height="123" fill="#FFDF80"/>
<path d="M134.048 132.416C134.048 133.44 133.8 134.312 133.304 135.032C132.808 135.736 132.096 136.28 131.168 136.664C130.256 137.048 129.176 137.24 127.928 137.24C127.288 137.24 126.672 137.208 126.08 137.144C125.504 137.08 124.976 136.992 124.496 136.88C124.016 136.752 123.592 136.6 123.224 136.424V134.36C123.8 134.616 124.512 134.848 125.36 135.056C126.224 135.264 127.112 135.368 128.024 135.368C128.872 135.368 129.584 135.256 130.16 135.032C130.736 134.808 131.168 134.488 131.456 134.072C131.744 133.656 131.888 133.168 131.888 132.608C131.888 132.048 131.768 131.576 131.528 131.192C131.288 130.808 130.872 130.456 130.28 130.136C129.704 129.8 128.896 129.448 127.856 129.08C127.12 128.808 126.472 128.52 125.912 128.216C125.368 127.896 124.912 127.536 124.544 127.136C124.176 126.736 123.896 126.28 123.704 125.768C123.528 125.256 123.44 124.664 123.44 123.992C123.44 123.08 123.672 122.304 124.136 121.664C124.6 121.008 125.24 120.504 126.056 120.152C126.888 119.8 127.84 119.624 128.912 119.624C129.856 119.624 130.72 119.712 131.504 119.888C132.288 120.064 133 120.296 133.64 120.584L132.968 122.432C132.376 122.176 131.728 121.96 131.024 121.784C130.336 121.608 129.616 121.52 128.864 121.52C128.144 121.52 127.544 121.624 127.064 121.832C126.584 122.04 126.224 122.336 125.984 122.72C125.744 123.088 125.624 123.52 125.624 124.016C125.624 124.592 125.744 125.072 125.984 125.456C126.224 125.84 126.616 126.184 127.16 126.488C127.704 126.792 128.44 127.12 129.368 127.472C130.376 127.84 131.224 128.24 131.912 128.672C132.616 129.088 133.144 129.592 133.496 130.184C133.864 130.776 134.048 131.52 134.048 132.416Z" fill="black"/>
<rect x="67.5" y="66.5" width="123" height="123" stroke="black"/>
<rect x="57.5" y="56.5" width="123" height="123" fill="#FFBF7F"/>
<path d="M124.048 122.416C124.048 123.44 123.8 124.312 123.304 125.032C122.808 125.736 122.096 126.28 121.168 126.664C120.256 127.048 119.176 127.24 117.928 127.24C117.288 127.24 116.672 127.208 116.08 127.144C115.504 127.08 114.976 126.992 114.496 126.88C114.016 126.752 113.592 126.6 113.224 126.424V124.36C113.8 124.616 114.512 124.848 115.36 125.056C116.224 125.264 117.112 125.368 118.024 125.368C118.872 125.368 119.584 125.256 120.16 125.032C120.736 124.808 121.168 124.488 121.456 124.072C121.744 123.656 121.888 123.168 121.888 122.608C121.888 122.048 121.768 121.576 121.528 121.192C121.288 120.808 120.872 120.456 120.28 120.136C119.704 119.8 118.896 119.448 117.856 119.08C117.12 118.808 116.472 118.52 115.912 118.216C115.368 117.896 114.912 117.536 114.544 117.136C114.176 116.736 113.896 116.28 113.704 115.768C113.528 115.256 113.44 114.664 113.44 113.992C113.44 113.08 113.672 112.304 114.136 111.664C114.6 111.008 115.24 110.504 116.056 110.152C116.888 109.8 117.84 109.624 118.912 109.624C119.856 109.624 120.72 109.712 121.504 109.888C122.288 110.064 123 110.296 123.64 110.584L122.968 112.432C122.376 112.176 121.728 111.96 121.024 111.784C120.336 111.608 119.616 111.52 118.864 111.52C118.144 111.52 117.544 111.624 117.064 111.832C116.584 112.04 116.224 112.336 115.984 112.72C115.744 113.088 115.624 113.52 115.624 114.016C115.624 114.592 115.744 115.072 115.984 115.456C116.224 115.84 116.616 116.184 117.16 116.488C117.704 116.792 118.44 117.12 119.368 117.472C120.376 117.84 121.224 118.24 121.912 118.672C122.616 119.088 123.144 119.592 123.496 120.184C123.864 120.776 124.048 121.52 124.048 122.416Z" fill="black"/>
<rect x="57.5" y="56.5" width="123" height="123" stroke="black"/>
<rect x="46.5" y="45.5" width="123" height="123" fill="#FF7F7F"/>
<path d="M113.048 111.416C113.048 112.44 112.8 113.312 112.304 114.032C111.808 114.736 111.096 115.28 110.168 115.664C109.256 116.048 108.176 116.24 106.928 116.24C106.288 116.24 105.672 116.208 105.08 116.144C104.504 116.08 103.976 115.992 103.496 115.88C103.016 115.752 102.592 115.6 102.224 115.424V113.36C102.8 113.616 103.512 113.848 104.36 114.056C105.224 114.264 106.112 114.368 107.024 114.368C107.872 114.368 108.584 114.256 109.16 114.032C109.736 113.808 110.168 113.488 110.456 113.072C110.744 112.656 110.888 112.168 110.888 111.608C110.888 111.048 110.768 110.576 110.528 110.192C110.288 109.808 109.872 109.456 109.28 109.136C108.704 108.8 107.896 108.448 106.856 108.08C106.12 107.808 105.472 107.52 104.912 107.216C104.368 106.896 103.912 106.536 103.544 106.136C103.176 105.736 102.896 105.28 102.704 104.768C102.528 104.256 102.44 103.664 102.44 102.992C102.44 102.08 102.672 101.304 103.136 100.664C103.6 100.008 104.24 99.504 105.056 99.152C105.888 98.8 106.84 98.624 107.912 98.624C108.856 98.624 109.72 98.712 110.504 98.888C111.288 99.064 112 99.296 112.64 99.584L111.968 101.432C111.376 101.176 110.728 100.96 110.024 100.784C109.336 100.608 108.616 100.52 107.864 100.52C107.144 100.52 106.544 100.624 106.064 100.832C105.584 101.04 105.224 101.336 104.984 101.72C104.744 102.088 104.624 102.52 104.624 103.016C104.624 103.592 104.744 104.072 104.984 104.456C105.224 104.84 105.616 105.184 106.16 105.488C106.704 105.792 107.44 106.12 108.368 106.472C109.376 106.84 110.224 107.24 110.912 107.672C111.616 108.088 112.144 108.592 112.496 109.184C112.864 109.776 113.048 110.52 113.048 111.416Z" fill="black"/>
<rect x="46.5" y="45.5" width="123" height="123" stroke="black"/>
</svg>
